<?xml version="1.0" encoding="UTF-8"?>
<svg id="Layer_2" data-name="Layer 2" xmlns="http://www.w3.org/2000/svg" viewBox="0 0 310 54.48">
  <defs>
    <style>
      .cls-1 {
        fill: #7868e6;
      }

      .cls-1, .cls-2 {
        stroke-width: 0px;
      }

      .cls-2 {
        fill: #fff;
      }
    </style>
  </defs>
  <g id="Layer_1-2" data-name="Layer 1">
    <g>
      <g id="Group_216" data-name="Group 216">
        <g id="Group_215" data-name="Group 215">
          <path id="Path_192" data-name="Path 192" class="cls-1" d="M53.96,27.2c-2.5,13.61-13.15,24.25-26.76,26.76h26.76v-26.76Z"/>
          <path id="Path_193" data-name="Path 193" class="cls-1" d="M53.96,26.97V0H0v53.96h26.98v-26.99h26.98Z"/>
        </g>
      </g>
      <path id="Path_194" data-name="Path 194" class="cls-2" d="M96.73,27.4c-.08,7.94-6.46,14.38-14.4,14.52-4.09-.03-7.94-1.91-10.48-5.11v17.05h-4.23V13.45h4.23v4.54c2.57-3.14,6.42-4.97,10.48-4.99,7.93.04,14.35,6.46,14.4,14.39ZM92.31,27.4c.16-5.49-4.17-10.07-9.66-10.22-.06,0-.13,0-.19,0-5.65.05-10.23,4.58-10.36,10.23.16,5.65,4.7,10.2,10.36,10.36,5.57-.16,9.97-4.79,9.85-10.36h0Z"/>
      <path id="Path_195" data-name="Path 195" class="cls-2" d="M105.05,17.23c2.37-2.72,5.81-4.26,9.41-4.23v4.16c-4.93,0-9.41,3.03-9.41,8.71v15.34h-4.23V13.43h4.23v3.8Z"/>
      <path id="Path_196" data-name="Path 196" class="cls-2" d="M115.71,27.4c.04-7.93,6.46-14.36,14.39-14.4,7.93.04,14.35,6.46,14.4,14.4-.08,7.94-6.46,14.38-14.4,14.52-7.94-.14-14.32-6.58-14.39-14.52ZM120.13,27.4c-.07,5.6,4.38,10.21,9.97,10.36,5.6-.14,10.04-4.76,9.98-10.36.1-5.55-4.33-10.13-9.88-10.23-.03,0-.07,0-.1,0-5.55.04-10.02,4.58-9.98,10.13,0,.03,0,.06,0,.1Z"/>
      <path id="Path_197" data-name="Path 197" class="cls-2" d="M176.19,13.44v25.25c0,10.93-6.5,15.78-14.4,15.78-6.1.01-11.55-3.84-13.57-9.59h4.8c1.7,3.29,5.07,5.38,8.78,5.43,5.62,0,9.97-2.97,9.97-11.62v-1.83c-2.59,3.03-6.37,4.79-10.36,4.8-7.93-.04-14.35-6.46-14.4-14.4.08-7.94,6.46-14.38,14.4-14.52,4.01.03,7.8,1.84,10.36,4.93v-4.23h4.42ZM171.64,27.27c-.16-5.65-4.7-10.2-10.36-10.36-5.57.16-9.97,4.79-9.85,10.36-.16,5.49,4.16,10.07,9.65,10.23.06,0,.13,0,.19,0,5.65-.05,10.24-4.57,10.37-10.22h0Z"/>
      <path id="Path_198" data-name="Path 198" class="cls-2" d="M186.72,17.23c2.37-2.72,5.8-4.26,9.41-4.23v4.16c-4.93,0-9.41,3.03-9.41,8.71v15.34h-4.23V13.43h4.23v3.8Z"/>
      <path id="Path_199" data-name="Path 199" class="cls-2" d="M197.39,27.4c.04-7.93,6.46-14.36,14.4-14.4,4.06.01,7.91,1.84,10.48,4.99v-4.54h4.23v27.91h-4.23v-4.54c-2.54,3.2-6.39,5.08-10.48,5.11-7.94-.14-14.32-6.58-14.4-14.52ZM222.01,27.4c-.12-5.65-4.71-10.17-10.36-10.23-5.49.05-9.9,4.54-9.85,10.03,0,.06,0,.13,0,.19-.12,5.57,4.28,10.2,9.85,10.36,5.65-.16,10.2-4.7,10.36-10.36Z"/>
      <path id="Path_200" data-name="Path 200" class="cls-2" d="M261.59,27.4c-.08,7.94-6.46,14.38-14.4,14.52-4.09-.03-7.94-1.91-10.48-5.11v17.05h-4.23V13.45h4.23v4.54c2.57-3.14,6.42-4.97,10.48-4.99,7.93.04,14.35,6.46,14.4,14.39ZM257.17,27.4c.16-5.49-4.17-10.07-9.66-10.22-.06,0-.13,0-.19,0-5.65.05-10.23,4.58-10.36,10.23.16,5.65,4.7,10.2,10.36,10.36,5.57-.16,9.97-4.78,9.85-10.36Z"/>
      <path id="Path_201" data-name="Path 201" class="cls-2" d="M300.59,17.23c2.37-2.72,5.8-4.26,9.41-4.23v4.16c-4.93,0-9.41,3.03-9.41,8.71v15.34h-4.23V13.43h4.23v3.8Z"/>
      <path id="Path_202" data-name="Path 202" class="cls-2" d="M265.69,0v41.23h4.23v-14.78c0-6.12,3.47-9.28,9.09-9.28,4.61,0,7.13,2.72,7.13,8.21v15.85h4.23v-15.85c0-8.84-3.41-12.38-11.36-12.38-3.43-.1-6.75,1.28-9.09,3.79V0h-4.23Z"/>
    </g>
  </g>
</svg>